<svg viewBox="0 0 48 48" height="48" width="48" xmlns="http://www.w3.org/2000/svg"><g transform="matrix(2,0,0,2,0,0)"><path d="M11.500 17.500 A6.000 6.000 0 1 0 23.500 17.500 A6.000 6.000 0 1 0 11.500 17.500 Z" fill="none" stroke="#fff" stroke-linecap="round" stroke-linejoin="round"></path><path d="M20.5 17.5L14.5 17.5" fill="none" stroke="#fff" stroke-linecap="round" stroke-linejoin="round"></path><path d="M11.500 17.500 A6.000 6.000 0 1 0 23.500 17.500 A6.000 6.000 0 1 0 11.500 17.500 Z" fill="none" stroke="#fff" stroke-linecap="round" stroke-linejoin="round"></path><path d="M17.5 14.5L17.5 20.5" fill="none" stroke="#fff" stroke-linecap="round" stroke-linejoin="round"></path><path d="M20.5 17.5L14.5 17.5" fill="none" stroke="#fff" stroke-linecap="round" stroke-linejoin="round"></path><path d="M20.5,4.5a4,4,0,0,0-4-4H4.5a4,4,0,0,0-4,4v2h20v-2Z" fill="none" stroke="#fff" stroke-linecap="round" stroke-linejoin="round"></path><path d="M8.5.5c-3,0-3,4-3,4v2" fill="none" stroke="#fff" stroke-linecap="round" stroke-linejoin="round"></path><path d="M12.5.5c3,0,3,4,3,4v2" fill="none" stroke="#fff" stroke-linecap="round" stroke-linejoin="round"></path><path d="M20.5,10V6.5H.5v9a2,2,0,0,0,2,2h7" fill="none" stroke="#fff" stroke-linecap="round" stroke-linejoin="round"></path><path d="M.5,8.5h8v1a2,2,0,0,0,2,2h0a2,2,0,0,0,2-2v-1h8" fill="none" stroke="#fff" stroke-linecap="round" stroke-linejoin="round"></path><path d="M10.5 8.5L10.5 9.5" fill="none" stroke="#fff" stroke-linecap="round" stroke-linejoin="round"></path><path d="M5.5 8.5L5.5 17.5" fill="none" stroke="#fff" stroke-linecap="round" stroke-linejoin="round"></path></g></svg>