<svg width="45px" height="52px" viewBox="0 0 45 52" version="1.1" xmlns="http://www.w3.org/2000/svg">
    <g id="main" stroke="none" stroke-width="1" fill="none" fill-rule="evenodd" stroke-linecap="round" stroke-linejoin="round">
        <g id="Desktop-HD-Copy" transform="translate(-874.000000, -943.000000)" stroke="#FFFFFF" stroke-width="2">
            <g id="Group-2" transform="translate(472.000000, 944.000000)">
                <g id="column-copy-2" transform="translate(352.000000, 0.000000)">
                    <g id="streamline-icon-shield-globe@48x48" transform="translate(51.000000, 0.000000)">
                        <path d="M0,7.05289722 L0,23.9722047 C0,34.9195211 6.69036497,44.736307 16.8295545,48.6667494 L19.1250851,49.5556019 C20.6537695,50.1481327 22.3462305,50.1481327 23.8749149,49.5556019 L26.1704455,48.6667494 C36.309635,44.736307 43,34.9195211 43,23.9722047 L43,7.05289722 C43.0085588,5.75237827 42.2593515,4.56771017 41.0858815,4.02635443 C34.9111861,1.31044158 28.2369609,-0.0609007964 21.5,0.00207471409 C14.7630391,-0.0609007964 8.0888139,1.31044158 1.91411852,4.02635443 C0.740648466,4.56771017 -0.00855875695,5.75237827 0,7.05289722 Z" id="Path"></path>
                        <path d="M8,23.5 C8,30.9558441 13.8202983,37 21,37 C28.1797017,37 34,30.9558441 34,23.5 C34,16.0441559 28.1797017,10 21,10 C13.8202983,10 8,16.0441559 8,23.5 Z" id="Path"></path>
                        <path d="M21,10 C27.6666667,19 27.6666667,28 21,37" id="Path"></path>
                        <path d="M21,10 C14.3333333,19 14.3333333,28 21,37" id="Path"></path>
                        <line x1="8" y1="24" x2="34" y2="24" id="Path"></line>
                    </g>
                </g>
            </g>
        </g>
    </g>
</svg>