<svg viewBox="0 0 48 48" height="48" width="48" xmlns="http://www.w3.org/2000/svg"><g transform="matrix(2,0,0,2,0,0)"><path d="M23.5,11.5a4,4,0,0,0-4-4H4.5a4,4,0,0,0-4,4V21.918A1.586,1.586,0,0,0,2.126,23.5c1.84-.025,1.054.367,4.49-5.508A3.007,3.007,0,0,1,9.21,16.5h5.579a3,3,0,0,1,2.588,1.482C20.736,23.742,20,23.493,21.86,23.5a1.626,1.626,0,0,0,1.639-1.62Z" fill="none" stroke="#fff" stroke-linecap="round" stroke-linejoin="round"></path><path d="M5.5 10.499L5.5 14.499" fill="none" stroke="#fff" stroke-linecap="round" stroke-linejoin="round"></path><path d="M7.5 12.499L3.501 12.499" fill="none" stroke="#fff" stroke-linecap="round" stroke-linejoin="round"></path><path d="M10 14.499L11 14.499" fill="none" stroke="#fff" stroke-linecap="round" stroke-linejoin="round"></path><path d="M13 14.499L14 14.499" fill="none" stroke="#fff" stroke-linecap="round" stroke-linejoin="round"></path><path d="M14,6.5a1,1,0,0,0-1-1H11a1,1,0,0,0-1,1v1h4Z" fill="none" stroke="#fff" stroke-linecap="round" stroke-linejoin="round"></path><path d="M12,5.5V3A2.507,2.507,0,0,0,9.5.5H5" fill="none" stroke="#fff" stroke-linecap="round" stroke-linejoin="round"></path><path d="M18.5,10.249a.25.25,0,0,1,.25.25" fill="none" stroke="#fff" stroke-linecap="round" stroke-linejoin="round"></path><path d="M18.25,10.5a.25.25,0,0,1,.25-.25" fill="none" stroke="#fff" stroke-linecap="round" stroke-linejoin="round"></path><path d="M18.5,10.749a.25.25,0,0,1-.25-.25" fill="none" stroke="#fff" stroke-linecap="round" stroke-linejoin="round"></path><path d="M18.75,10.5a.25.25,0,0,1-.25.25" fill="none" stroke="#fff" stroke-linecap="round" stroke-linejoin="round"></path><path d="M16.5,12.249a.25.25,0,0,1,.25.25" fill="none" stroke="#fff" stroke-linecap="round" stroke-linejoin="round"></path><path d="M16.25,12.5a.25.25,0,0,1,.25-.25" fill="none" stroke="#fff" stroke-linecap="round" stroke-linejoin="round"></path><path d="M16.5,12.749a.25.25,0,0,1-.25-.25" fill="none" stroke="#fff" stroke-linecap="round" stroke-linejoin="round"></path><path d="M16.75,12.5a.25.25,0,0,1-.25.25" fill="none" stroke="#fff" stroke-linecap="round" stroke-linejoin="round"></path><path d="M18.5,14.249a.25.25,0,0,1,.25.25" fill="none" stroke="#fff" stroke-linecap="round" stroke-linejoin="round"></path><path d="M18.25,14.5a.25.25,0,0,1,.25-.25" fill="none" stroke="#fff" stroke-linecap="round" stroke-linejoin="round"></path><path d="M18.5,14.749a.25.25,0,0,1-.25-.25" fill="none" stroke="#fff" stroke-linecap="round" stroke-linejoin="round"></path><path d="M18.75,14.5a.25.25,0,0,1-.25.25" fill="none" stroke="#fff" stroke-linecap="round" stroke-linejoin="round"></path><path d="M20.5,12.249a.25.25,0,0,1,.25.25" fill="none" stroke="#fff" stroke-linecap="round" stroke-linejoin="round"></path><path d="M20.249,12.5a.25.25,0,0,1,.25-.25" fill="none" stroke="#fff" stroke-linecap="round" stroke-linejoin="round"></path><path d="M20.5,12.749a.25.25,0,0,1-.25-.25" fill="none" stroke="#fff" stroke-linecap="round" stroke-linejoin="round"></path><path d="M20.749,12.5a.25.25,0,0,1-.25.25" fill="none" stroke="#fff" stroke-linecap="round" stroke-linejoin="round"></path></g></svg>