<svg width="48px" height="48px" viewBox="0 0 48 48" version="1.1" xmlns="http://www.w3.org/2000/svg">
    <g id="main" stroke="none" stroke-width="1" fill="none" fill-rule="evenodd" stroke-linecap="round" stroke-linejoin="round">
        <g id="Desktop-HD-Copy" transform="translate(-698.000000, -945.000000)" stroke="#FFFFFF" stroke-width="2">
            <g id="Group-2" transform="translate(472.000000, 944.000000)">
                <g id="column-copy" transform="translate(176.000000, 1.000000)">
                    <g id="streamline-icon-server-hand@140x140" transform="translate(50.000000, 1.000000)">
                        <line x1="1" y1="28" x2="1" y2="46" id="Path"></line>
                        <path d="M1,43 L31,43 C31,39.6862915 28.3137085,37 25,37 L17.498,37 C17.498,33.6862915 14.8117085,31 11.498,31 L1,31" id="Path"></path>
                        <line x1="12" y1="37" x2="18" y2="37" id="Path"></line>
                        <path d="M18,5.25 C17.5857864,5.25 17.25,5.58578644 17.25,6 C17.25,6.41421356 17.5857864,6.75 18,6.75 C18.4142136,6.75 18.75,6.41421356 18.75,6 C18.75,5.58578644 18.4142136,5.25 18,5.25 L18,5.25" id="Path"></path>
                        <line x1="29" y1="6" x2="38" y2="6" id="Path"></line>
                        <path d="M18,17.25 C17.5857864,17.25 17.25,17.5857864 17.25,18 C17.25,18.4142136 17.5857864,18.75 18,18.75 C18.4142136,18.75 18.75,18.4142136 18.75,18 C18.75,17.5857864 18.4142136,17.25 18,17.25 L18,17.25" id="Path"></path>
                        <line x1="29" y1="18" x2="38" y2="18" id="Path"></line>
                        <path d="M47,6 C47,9.3137085 44.2390893,12 40.8333333,12 L16.1666667,12 C12.7609107,12 10,9.3137085 10,6 C10,2.6862915 12.7609107,0 16.1666667,0 L40.8333333,0 C44.2390893,0 47,2.6862915 47,6 Z" id="Path"></path>
                        <path d="M47,18 C47,21.3137085 44.2390893,24 40.8333333,24 L16.1666667,24 C12.7609107,24 10,21.3137085 10,18 C10,14.6862915 12.7609107,12 16.1666667,12 L40.8333333,12 C44.2390893,12 47,14.6862915 47,18 Z" id="Path"></path>
                    </g>
                </g>
            </g>
        </g>
    </g>
</svg>