<svg width="48px" height="48px" viewBox="0 0 48 48" version="1.1" xmlns="http://www.w3.org/2000/svg">
    <g id="main" stroke="none" stroke-width="1" fill="none" fill-rule="evenodd" stroke-linecap="round" stroke-linejoin="round">
        <g id="Desktop-HD-Copy" transform="translate(-521.000000, -943.000000)" stroke="#FFFFFF" stroke-width="2">
            <g id="Group-2" transform="translate(472.000000, 944.000000)">
                <g id="streamline-icon-multiple-users-3@140x140" transform="translate(50.000000, 0.000000)">
                    <path d="M18,32.5 C18,35.5375661 20.4624339,38 23.5,38 C26.5375661,38 29,35.5375661 29,32.5 C29,29.4624339 26.5375661,27 23.5,27 C20.4624339,27 18,29.4624339 18,32.5 Z" id="Path"></path>
                    <path d="M32,46 C30.7381565,42.4068591 27.3284394,40 23.5,40 C19.6715606,40 16.2618435,42.4068591 15,46" id="Path"></path>
                    <path d="M3,5.5 C3,7.46496073 4.04829403,9.28065934 5.74999997,10.2631397 C7.45170591,11.2456201 9.54829409,11.2456201 11.25,10.2631397 C12.951706,9.28065934 14,7.46496073 14,5.5 C14,3.53503927 12.951706,1.71934066 11.25,0.736860283 C9.54829409,-0.245620094 7.45170591,-0.245620094 5.74999997,0.736860283 C4.04829403,1.71934066 3,3.53503927 3,5.5 Z" id="Path"></path>
                    <path d="M17,18 C15.7391626,14.4070976 12.3291078,12 8.5,12 C4.67089225,12 1.26083735,14.4070976 0,18 L17,18 Z" id="Path"></path>
                    <path d="M32,5.5 C32,8.53756612 34.4624339,11 37.5,11 C40.5375661,11 43,8.53756612 43,5.5 C43,2.46243388 40.5375661,0 37.5,0 C34.4624339,0 32,2.46243388 32,5.5 L32,5.5 Z" id="Path"></path>
                    <path d="M46,18 C44.7391626,14.4070976 41.3291078,12 37.5,12 C33.6708922,12 30.2608374,14.4070976 29,18 L46,18 Z" id="Path"></path>
                    <path d="M6,25 L6,32.5 C6,34.9852814 8.01471863,37 10.5,37 L12,37" id="Path"></path>
                    <path d="M40,25 L40,32.5 C40,34.9852814 37.9852814,37 35.5,37 L34,37" id="Path"></path>
                </g>
            </g>
        </g>
    </g>
</svg>