<svg width="34px" height="10px" viewBox="0 0 34 10" version="1.1" xmlns="http://www.w3.org/2000/svg">
    <g id="main" stroke="none" stroke-width="1" fill="none" fill-rule="evenodd">
        <g id="Desktop-HD-Copy" transform="translate(-167.000000, -1563.000000)" fill="#FF884B" fill-rule="nonzero">
            <g id="modding" transform="translate(-5.000000, 1560.773467)">
                <g id="Group-5" transform="translate(0.000000, 0.011334)">
                    <g id="game-tabs" transform="translate(0.000000, 2.215199)">
                        <g id="bo2" transform="translate(165.000000, 0.000000)">
                            <g id="Group-4" transform="translate(7.000000, 0.000000)">
                                <path d="M2.51748252,1.66666667 L2.51748252,3.33333333 L7.54641596,3.33333333 C7.8983714,3.33333333 8.12723036,3.30212779 8.23298658,3.24029852 C8.33872402,3.17825767 8.39160839,3.06300874 8.39160839,2.89465751 L8.39160839,2.10536894 C8.39160839,1.94436952 8.33735357,1.83101407 8.22881891,1.76527088 C8.12028424,1.69954355 7.89281451,1.66666667 7.54641596,1.66666667 L2.51748252,1.66666667 Z M2.51748252,5.83333333 L2.51748252,7.5 L7.49846829,7.5 C7.87575907,7.5 8.11894155,7.46329036 8.22801572,7.38943056 C8.33706511,7.3157176 8.39160839,7.17103267 8.39160839,6.95527787 L8.39160839,6.37100721 C8.39160839,6.1593639 8.33619737,6.01683259 8.22536294,5.94341331 C8.11451611,5.87004297 7.87221996,5.83333333 7.49846829,5.83333333 L2.51748252,5.83333333 Z M0,10 L0,0 L8.46966542,0 C9.28376711,0 9.8816513,0.166848282 10.2633302,0.500520428 C10.6449786,0.834210888 10.835812,1.35176961 10.8358242,2.05319048 L10.8358242,3.22845413 C10.835812,3.73746623 10.6749236,4.14770386 10.3531712,4.45910596 C10.0313883,4.77056911 9.63886975,4.90304168 9.17561557,4.85658471 C9.66097081,4.81018879 10.0712252,4.96592036 10.4063788,5.32402363 C10.741508,5.68206584 10.9090909,6.14040871 10.9090909,6.69899119 L10.9090909,7.92884941 C10.9090909,8.6302825 10.6522478,9.15083253 10.1385922,9.49049952 C9.62491826,9.83016651 8.86779636,10 7.8672204,10 L0,10 Z" id="path3017"></path>
                                <path d="M12,2.46310456 C12,1.54144957 12.1794662,0.900502114 12.5384046,0.540298826 C12.8973371,0.180107748 13.5625849,0 14.5341483,0 L21.4658517,0 C22.4351282,0 23.0998028,0.180590022 23.4598936,0.541745647 C23.8199486,0.90292569 24,1.54338477 24,2.46310456 L24,7.53686492 C24,8.46514964 23.8203308,9.10773316 23.4610281,9.46467653 C23.1016956,9.82155884 22.4366388,10 21.4658517,10 L14.5341483,10 C13.5610743,10 12.8954442,9.82204722 12.5372701,9.46608061 C12.1790841,9.11017505 12,8.46710315 12,7.53686492 L12,2.46310456 Z M14.4,7.5 L21.6,7.5 L21.6,1.66666667 L14.4,1.66666667 L14.4,7.5 Z" id="path3027"></path>
                                <path d="M27.0924802,0 C27.0436113,0 27,0.0415297489 27,0.0881059169 L27,3.89863907 C27,3.94546787 27.0435925,3.97941874 27.0924802,3.97941874 L27.5394917,3.97941874 L27.5394917,6.02053812 L27.0924802,6.02053812 C27.0436113,6.02053812 27,6.06182141 27,6.1086502 L27,9.91922033 C27,9.96604912 27.0435925,10 27.0924802,10 L29.9132666,10 C29.9621354,10 29.9980458,9.96611074 29.9980458,9.91922033 L29.9980458,6.1086502 C29.9980458,6.096943 30.0024427,6.08215496 29.9980458,6.07229627 L29.9980458,3.92846162 C30.0024427,3.91860292 29.9980458,3.91059274 29.9980458,3.89888554 L29.9980458,0.815172284 L29.9980458,0.0883030908 C29.9980458,0.0417207611 29.9621165,0.000197173882 29.9132666,0.000197173882 L27.0924802,0.000197173882 L27.0924802,0 Z M31.0867272,0.000197173639 C31.0378583,0.000197173639 31.0019542,0.0417268714 31.0019542,0.0883029819 L31.0019542,0.815171279 L31.0019542,3.89883144 C31.0019542,3.91053862 30.9975573,3.91793263 31.0019542,3.92840748 L31.0019542,6.07230111 C30.9975573,6.08277596 31.0019542,6.09756398 31.0019542,6.108655 L31.0019542,9.91922042 C31.0019542,9.96604916 31.0378835,10 31.0867272,10 L33.9075136,10 C33.9563824,10 34,9.96611078 34,9.91922042 L34,6.108655 C34,6.06182626 33.9564075,6.02054303 33.9075136,6.02054303 L33.4605083,6.02054303 L33.4605083,3.97942616 L33.9075136,3.97942616 C33.9563824,3.97942616 34,3.94553694 34,3.89864659 L34,0.0881058083 C34,0.0415235361 33.9564075,0 33.9075136,0 L31.0867272,0 L31.0867272,0.000197173639 Z" id="rect3128"></path>
                            </g>
                        </g>
                    </g>
                </g>
            </g>
        </g>
    </g>
</svg>