<svg width="40px" height="10px" viewBox="0 0 40 10" version="1.1" xmlns="http://www.w3.org/2000/svg">
    <g id="main" stroke="none" stroke-width="1" fill="none" fill-rule="evenodd">
        <g id="Desktop-HD-Copy" transform="translate(-1236.000000, -1163.000000)" fill="#00BF9F" fill-rule="nonzero">
            <g id="dlc" transform="translate(160.000000, 1163.000000)">
                <g id="Group-8" transform="translate(566.000000, 0.000000)">
                    <g id="mw3" transform="translate(506.000000, 0.000000)">
                        <path d="M38.4153288,0 L38.4153288,1.94515015 L39.7033661,1.94515015 L40.9513206,2.7422752 L40.9513206,3.53940026 L40.0343863,4.15716674 L37,4.15716674 L37,5.75141685 L39.9543242,5.75141685 L40.8674262,6.50272512 L40.8674262,7.29985017 L39.750492,7.98634182 L38.4989125,7.98634182 L38.4989125,10 L41.864319,10 L43.9455205,8.71474171 L43.9455205,5.66369183 L43.1559814,5.04190824 L44,4.52326667 L44,1.46081688 L41.7407561,0.0191084186 L38.4153288,0 L38.4153288,0 Z M31,1.5236481 L31,3 L34.1782228,3 L35.3461817,2.11338017 L37,2.11338017 L37,0 L33.5983154,0 L31,1.5236481 Z M11.4769078,5.35122612 L7.14031671,0.00764960441 L4.04265716,0.00764960441 L4,10 L6.69875445,10 L6.69875445,3.85802334 L11.3915935,9.52015124 L16.2121836,3.90403025 L16.2121836,6.31474844 L19,3.11327971 L19,0 L15.9025609,0 L11.4769078,5.35122612 Z M28.3477606,6.17695685 L23.5232024,0.373140048 L18.6987545,6.17695685 L18.6987545,4.06545279 L16.046515,7.1884204 L16,10 L19.1439541,10 L23.4806555,4.63852058 L27.9488555,9.78069263 L31,9.78069263 L31,0 L28.3477606,0 L28.3477606,6.17695685 Z M31,8.47622937 L33.5983154,10 L37,10 L37,7.88661983 L35.3461817,7.88661983 L34.1782228,7 L31,7 L31,8.47622937 Z" id="Shape"></path>
                    </g>
                </g>
            </g>
        </g>
    </g>
</svg>