<svg viewBox="0 0 48 48" height="48" width="48" xmlns="http://www.w3.org/2000/svg"><g transform="matrix(2,0,0,2,0,0)"><path d="M12,0A12,12,0,1,0,24,12,12.013,12.013,0,0,0,12,0Zm0,22A10,10,0,1,1,22,12,10.011,10.011,0,0,1,12,22Z" fill="#e11d48" stroke="none" stroke-linecap="round" stroke-linejoin="round" stroke-width="0"></path><path d="M12,3.5A8.5,8.5,0,1,0,20.5,12,8.5,8.5,0,0,0,12,3.5Zm5.021,8.624L15.241,13.4a.251.251,0,0,0-.092.282l.82,2.457A1,1,0,0,1,14.42,17.25l-2.27-1.7a.249.249,0,0,0-.3,0l-2.27,1.7a1,1,0,0,1-1.549-1.117l.82-2.456a.251.251,0,0,0-.092-.282l-1.78-1.271a1,1,0,0,1,.582-1.813H9.942a.25.25,0,0,0,.239-.179l.862-2.869a1,1,0,0,1,1.914,0l.862,2.869a.25.25,0,0,0,.239.179h2.381a1,1,0,0,1,.582,1.813Z" fill="#e11d48" stroke="none" stroke-linecap="round" stroke-linejoin="round" stroke-width="0"></path></g></svg>