<?xml version="1.0" encoding="UTF-8"?>
<svg width="220px" height="60px" viewBox="0 0 189 49" version="1.1" xmlns="http://www.w3.org/2000/svg">
    <title>logo</title>
    <g id="Symbols" stroke="none" stroke-width="1" fill="none" fill-rule="evenodd">
        <g id="nav" transform="translate(-160.000000, -18.000000)" fill="currentColor">
            <rect id="Rectangle" fill-opacity="0" x="0" y="0" width="1440" height="80"></rect>
            <g id="logo" transform="translate(161.000000, 19.000000)" fill-rule="nonzero">
                <g id="Group" stroke="currentColor">
                    <path d="M21.4998779,47 C19.1522298,47 16.9833106,44.5025634 15.3940395,39.9685567 C14.9940969,38.8273978 14.6368833,37.5759277 14.3314327,36.248843 C14.2159425,35.7458621 14.107289,35.2340276 14.009623,34.7269788 C13.6275045,32.7621947 13.3496445,30.6416349 13.1843447,28.4248818 L13.1814147,28.3904245 C13.1318492,27.7369321 13.0930269,27.0855934 13.0666571,26.4550726 C13.022219,25.5007968 13,24.5067993 13,23.4998804 C13,22.4941578 13.0224632,21.5008782 13.0661688,20.5485167 C13.0930269,19.9124923 13.1323375,19.2570857 13.1828797,18.5992862 L13.1845889,18.5751182 C13.3498887,16.3583651 13.6275045,14.2378053 14.0098671,12.273739 C14.1065566,11.7736296 14.2147217,11.2622736 14.3316768,10.7530713 C14.636395,9.42550798 14.9938528,8.17403789 15.3942837,7.03144331 C16.9835548,2.49743658 19.152474,0 21.5001221,0 C23.8480144,0 26.0164452,2.49743658 27.6059605,7.03144331 C28.0066355,8.17427718 28.3640934,9.42646512 28.6685673,10.7530713 C28.7862549,11.2579665 28.8939318,11.7702796 28.9898887,12.2756533 C29.3742047,14.2555125 29.6527971,16.3810974 29.8176086,18.5947398 C29.8493501,18.9933916 29.8727899,19.3575862 29.8913465,19.7100556 L29.8923232,19.7268057 C29.9096589,19.9983963 29.9235763,20.270944 29.9330987,20.5439702 C29.977781,21.4989639 30,22.4924828 30,23.4998804 L30,23.6271809 C29.99707,24.592464 29.9753393,25.5436291 29.9330987,26.4531583 C29.9064847,27.0922934 29.8671741,27.7481786 29.8176086,28.4062174 C29.6527971,30.6205776 29.3744488,32.7461625 28.9898887,34.7241074 C28.8812352,35.2881064 28.7762442,35.785823 28.6690557,36.2450144 C28.3643375,37.5725777 28.0066355,38.8252443 27.6059605,39.9683174 C26.0162011,44.5028027 23.8480144,47 21.4998779,47 Z M13.8920007,27.9626264 C13.9308327,28.5414633 13.9750717,29.0656749 14.0239803,29.5582613 C14.1802914,31.2260111 14.409351,32.8503961 14.7025572,34.3842181 C14.7974252,34.8993254 14.9063023,35.4249745 15.0255018,35.9427173 C15.332717,37.2982881 15.6969513,38.5752751 16.1066534,39.7377406 C17.5874305,43.9398186 19.5032243,46.2539683 21.5001229,46.2539683 C23.4965299,46.2539683 25.4125695,43.9398186 26.8933466,39.7372615 C27.3032945,38.5752751 27.667283,37.2982881 27.9744982,35.9412797 C28.0907484,35.436235 28.2003628,34.9108255 28.2996547,34.3811035 C28.591632,32.842969 28.8197086,31.2205007 28.9760197,29.5582613 C29.0123939,29.2075091 29.0426239,28.849809 29.0703962,28.4880359 C29.0839136,28.3112223 29.0966938,28.1360858 29.1089824,27.9626264 L29.1102112,27.9626264 L29.1350342,27.5984575 C29.218351,26.2342616 29.2608696,24.8549719 29.2608696,23.5001198 C29.2608696,22.1452677 29.218351,20.765978 29.1350342,19.4017821 L29.1119317,19.0373736 L29.1089824,19.0373736 C29.0966938,18.8653517 29.0844052,18.6940485 29.0721166,18.5237037 C29.0428697,18.1525869 29.0126397,17.7944076 28.9760197,17.4391033 C28.8197086,15.7783014 28.5918778,14.1551143 28.2996547,12.6188965 C28.2003628,12.0901329 28.0905027,11.5654421 27.9744982,11.0587203 C27.667283,9.70219107 27.3032945,8.42520404 26.8933466,7.26273855 C25.4115864,3.06066058 23.4960384,0.746031746 21.5001229,0.746031746 C19.5042074,0.746031746 17.5889051,3.06066058 16.1066534,7.26273855 C15.6969513,8.42520404 15.332717,9.70219107 15.0255018,11.0591994 C14.9063023,11.5781401 14.7971795,12.1028309 14.7020657,12.6181778 C14.4095968,14.1505622 14.1802914,15.7759056 14.0239803,17.4465304 C13.9873603,17.797043 13.9573761,18.1525869 13.9293581,18.5117245 C13.9074843,18.8066534 13.8856106,19.1042177 13.8654573,19.4017821 C13.8477617,19.7242632 13.8295746,20.0453068 13.8135994,20.367788 C13.7641992,21.3788359 13.7391304,22.4330091 13.7391304,23.5001198 C13.7391304,24.8530552 13.7821406,26.2321054 13.8654573,27.5984575 L13.8878226,27.9626264 L13.8920007,27.9626264 Z" id="Shape"></path>
                    <path d="M37.1994874,38 C34.9720062,38 32.3058574,37.5316066 29.2762553,36.6086175 C28.7564354,36.4505498 28.2482441,36.2852203 27.7635572,36.1179542 C25.7980889,35.4462273 23.7514684,34.6082025 21.6791166,33.6266339 C21.0326201,33.3201812 20.4403075,33.0294626 19.8677882,32.7351131 C18.9857521,32.287053 18.0866444,31.80462 17.1947117,31.3004011 C16.3062428,30.7978768 15.4291551,30.2779238 14.5899219,29.7543399 C14.0134439,29.3958434 13.4557695,29.037347 12.9305065,28.6873228 L12.9003218,28.6657791 C12.3075144,28.2736358 11.7213872,27.8710838 11.1592594,27.4678055 C9.92020281,26.5840307 8.74027856,25.6707241 7.65288768,24.7525763 C7.48390294,24.6109689 7.31689751,24.4703299 7.15286107,24.3258178 C6.87526094,24.0861747 6.65728794,23.8934919 6.46380906,23.7155751 C5.83685832,23.1508403 5.24578283,22.5836849 4.70493267,22.0279065 C4.36869508,21.6861125 4.02726177,21.3220486 3.66232399,20.9124767 C0.408068649,17.2551352 -0.729300147,14.130334 0.458788815,12.1149111 C1.02957624,11.150287 2.41930879,10 5.80642622,10 C8.02747467,10 10.6936235,10.4691196 13.729411,11.3940452 C14.2524472,11.5535653 14.760886,11.7186527 15.2418616,11.8847085 C17.2229171,12.562245 19.2710221,13.4009959 21.3305083,14.3779653 C21.9173777,14.6536759 22.5275042,14.9531088 23.1438161,15.2692441 C24.0411919,15.7260184 24.937578,16.2074832 25.8089752,16.7005671 C26.6910113,17.1984923 27.568099,17.7191715 28.4162392,18.2463863 C28.9637695,18.5876962 29.5160008,18.943772 30.1048496,19.334705 C31.1207374,20.0100629 32.1319243,20.7251193 33.1069886,21.460509 C33.8865946,22.0477557 34.6426962,22.6502524 35.3552527,23.2517809 C35.4235394,23.3086659 35.484651,23.3594993 35.5442781,23.4125112 C35.8800209,23.6971782 36.2142791,23.9908016 36.5450736,24.2902345 C36.8058495,24.5247942 37.0406467,24.7419254 37.2643103,24.9551836 C38.021649,25.6704821 38.7205976,26.3882011 39.3430948,27.0889757 L39.4220204,27.1797496 C39.5160382,27.2852894 39.6080768,27.389861 39.6968989,27.4949167 C42.6718222,30.9767619 43.6827617,33.9568089 42.5441559,35.8872674 C41.9751003,36.8511654 40.584873,38 37.1994874,38 Z M14.080763,28.5251031 C15.2006506,29.2494889 16.379323,29.9631861 17.5855275,30.6455468 C18.8103348,31.3388389 20.0688751,31.9998226 21.3259272,32.610765 C21.9308897,32.9066409 22.5499904,33.1952291 23.1651224,33.4704569 C24.7597531,34.1863404 26.3325565,34.8125867 27.8386378,35.3326772 C28.3431453,35.5109801 28.8647674,35.682967 29.3856453,35.8437797 C32.3821818,36.7727036 35.0976922,37.2631579 37.2399888,37.2631579 C38.9028296,37.2631579 41.0614966,36.9631524 41.9028385,35.5364866 C42.7803939,34.0483622 42.0218964,31.651962 39.767487,28.7886707 C39.4676101,28.408016 39.1359845,28.0132719 38.7832757,27.6153699 C38.4754616,27.2706672 38.1788092,26.9519569 37.8752118,26.6412629 C37.3347389,26.0801191 36.7439145,25.5080438 36.1233256,24.9427703 C36.058588,24.8837409 35.991866,24.8232539 35.9224156,24.7630099 C35.49728,24.3808977 35.0971961,24.0335229 34.6995926,23.7024237 C34.3528367,23.4123779 33.9944231,23.1206317 33.6342732,22.8364159 C32.944978,22.2898472 32.2147567,21.7393918 31.4641964,21.2022969 C31.2136789,21.0225366 30.9579526,20.8418045 30.7012342,20.6647162 C30.13819,20.273373 29.5748977,19.8946617 29.029464,19.5414568 L28.9292571,19.4758686 L28.9270247,19.4758686 C28.4909755,19.1931103 28.0442606,18.9125384 27.5982899,18.6397399 C26.9013056,18.2114729 26.1695961,17.7793193 25.4202759,17.3556678 C24.1974529,16.664562 22.9406489,16.004307 21.6843408,15.3936076 C21.0786342,15.0970029 20.4595336,14.8084147 19.8446495,14.5331869 C18.2631649,13.8233764 16.6906095,13.1951867 15.1721263,12.6673228 C14.6631541,12.4899916 14.141036,12.3180047 13.6228865,12.1562203 C10.626102,11.2272964 7.91009553,10.7368421 5.76779894,10.7368421 C4.10446202,10.7368421 1.94505087,11.0368476 1.10222074,12.4652138 C0.115529079,14.1423296 1.16795057,16.8933921 4.06800057,20.2109427 L4.11487958,20.264385 C4.15158907,20.3068959 4.18854661,20.3491639 4.22674432,20.390946 C4.91628751,21.1675595 5.70702985,21.9713798 6.57218332,22.7747144 C6.743825,22.9328549 6.91273828,23.0888092 7.08611623,23.2425772 C7.49711373,23.6123006 7.90959946,23.9681776 8.30968333,24.2995197 C9.05776328,24.9284381 9.84652132,25.5507976 10.6548743,26.1491082 C11.1822012,26.544581 11.7375563,26.9451552 12.3045692,27.337713 C12.5801384,27.5293764 12.8611645,27.720554 13.1446709,27.9122174 C13.4207362,28.0965932 13.6972976,28.2780541 13.9773315,28.4607295 L14.0775385,28.525589 L14.080763,28.525589 L14.080763,28.5251031 Z" id="Shape"></path>
                    <path d="M5.80335209,38 C2.41570729,38 1.02769331,36.8511654 0.460611665,35.8870254 C-0.483287322,34.2906148 0.0296098206,31.9936718 1.94313925,29.2450377 C2.33554391,28.6836918 2.78262791,28.1087904 3.2697936,27.5370358 C3.39696636,27.3876824 3.52686072,27.2376029 3.6612086,27.0875233 C3.99373815,26.7132928 4.34086535,26.3397884 4.69665218,25.9771768 C5.23899204,25.4218826 5.83106288,24.8530327 6.4587619,24.2868456 C6.68193277,24.0852064 6.91227876,23.8816308 7.1460886,23.6799917 C7.31136371,23.5354796 7.47713365,23.392662 7.64686227,23.2517809 C8.46705235,22.5585103 9.35552974,21.8567674 10.2892846,21.164465 C11.1255568,20.5447818 12.0036427,19.9292136 12.8975633,19.3361574 L12.9235421,19.3172764 C13.4450989,18.9696729 13.9862017,18.6218272 14.5859425,18.2478387 C15.445472,17.713604 16.3228156,17.1931669 17.1952108,16.6995989 C18.0861624,16.1973166 18.9837942,15.7156097 19.8633646,15.2673076 C20.4371265,14.972716 21.0294448,14.6819974 21.6759476,14.3757867 C23.7567314,13.3893769 25.8046087,12.5506259 27.7592095,11.8825299 C28.2451381,11.7167162 28.7409634,11.55647 29.2748911,11.3913825 C32.3052646,10.4683934 34.971439,10 37.1989416,10 C40.5851019,10 41.9738582,11.1488346 42.5439088,12.1124905 C43.6830205,14.0436752 42.6718238,17.0256588 39.6961297,20.5070198 C39.5805856,20.6433017 39.4625673,20.7778892 39.3425696,20.9127187 C38.7178396,21.6142195 38.0178946,22.3326648 37.2622806,23.0477211 C37.0294604,23.2687254 36.7889703,23.4899716 36.5422947,23.7131544 C36.2097652,24.0130714 35.874514,24.3071789 35.5466854,24.5862784 C35.5167479,24.6114531 35.3871009,24.7230445 35.3556789,24.7494294 C34.3791207,25.5741407 33.3300692,26.3920741 32.2372247,27.1824123 C31.5370322,27.6926828 30.8195205,28.1923024 30.1029985,28.6667474 C29.5017732,29.0661526 28.9505263,29.4210181 28.4138771,29.7528875 C27.5731513,30.2776817 26.6972922,30.7973926 25.8088148,31.2989488 C24.9124201,31.8051041 24.0145408,32.287053 23.1386817,32.7317242 C22.5738268,33.0226848 21.9820034,33.3143717 21.3280781,33.6234871 C19.2633764,34.6016668 17.2152517,35.4396915 15.24061,36.1148074 C14.7482486,36.2864306 14.2541552,36.4471609 13.7266604,36.6078913 C10.6962869,37.5316066 8.03035989,38 5.80335209,38 Z M37.2386577,10.7368421 C35.0937678,10.7368421 32.3770561,11.2284975 29.3800152,12.1581246 C28.8922922,12.3082447 28.3713265,12.4797411 27.8320031,12.6672698 C26.3164893,13.1934188 24.7449096,13.8201337 23.1616703,14.5313823 C22.5824061,14.7908131 21.962457,15.0803651 21.3214212,15.3908076 C20.0745768,15.9985753 18.817065,16.6590551 17.5831207,17.3557289 C16.8232551,17.7851986 16.0909263,18.2173404 15.4054844,18.6385511 C14.9507558,18.9149858 14.4813906,19.2103677 13.9703481,19.5412149 C13.3987744,19.9133573 12.8363796,20.2906008 12.2973042,20.6642006 C11.7428479,21.0482457 11.1869032,21.4475942 10.6460912,21.8513152 C9.83809837,22.4515526 9.04895948,23.0731664 8.30075361,23.7003671 C7.85669243,24.071052 7.45530082,24.4179314 7.07549206,24.7616529 C6.90258109,24.9178458 6.73165475,25.0720954 6.56345728,25.2290171 C5.70336783,26.0260138 4.91298855,26.8283547 4.21563885,27.6136916 C3.82441847,28.0540924 3.46495218,28.4847767 3.1488997,28.8938418 C0.95985175,31.7084719 0.230499871,34.0676406 1.09703937,35.5362911 C1.9372825,36.9636465 4.09556867,37.2631579 5.75918558,37.2631579 C7.89911391,37.2631579 10.6160737,36.7722312 13.6143549,35.8443045 C14.1903941,35.6643061 14.6979634,35.4969393 15.1663363,35.3320015 C16.6773847,34.8082816 18.2497086,34.1815667 19.8384057,33.4686177 C20.4375162,33.2009279 21.056473,32.9113759 21.6771663,32.6084637 C22.9334377,31.9980239 24.192438,31.3373012 25.4164591,30.6437853 C26.1482918,30.2305907 26.8816129,29.7984489 27.5948397,29.3595056 C28.0530414,29.0789413 28.5132277,28.7891464 28.9629946,28.497894 L29.0230297,28.4595138 C29.3440438,28.2540096 29.6581116,28.044133 29.9709391,27.8344993 L30.0560302,27.7766861 C30.2721068,27.6297238 30.4869432,27.4842191 30.6997948,27.3348278 C31.1651908,27.0122396 31.5717921,26.7222018 31.9439104,26.4489249 C32.4579298,26.0741106 32.9769108,25.6813206 33.4837359,25.2817292 C33.5303747,25.2472355 33.5829675,25.2047258 33.6355602,25.1617303 C34.002965,24.8716924 34.3619351,24.5789826 34.6970897,24.2974467 C35.1222968,23.9425511 35.5351001,23.586441 35.9213589,23.2393187 C35.9883402,23.1807767 36.0550734,23.1205344 36.1215585,23.0600491 C36.7469654,22.4909045 37.337145,21.9210312 37.8737396,21.3654897 C38.2143519,21.0125375 38.5120465,20.6921356 38.7831967,20.3863084 C39.1262898,19.9991055 39.457227,19.6031577 39.7663333,19.2118252 C42.0213702,16.3486126 42.7802435,13.9527641 41.9032847,12.4641947 C41.0595685,11.0361106 38.9010342,10.7368421 37.2386577,10.7368421 Z" id="Shape"></path>
                </g>
                <g class="wordmark" transform="translate(55.000000, 15.000000)">
                    <path d="M11,5.36702153 C11,6.12784481 10.858789,6.83870357 10.5771084,7.49959782 C10.2954277,8.16049207 9.91219381,8.73470546 9.42740658,9.22185947 C8.94261936,9.709392 8.37258668,10.0898036 7.71767917,10.3630944 C7.06203039,10.6371422 6.36783584,10.773409 5.63398362,10.773409 L3.03918596,10.773409 L3.03918596,16 L0,16 L0,0 L5.63768995,0 C6.3708009,0 7.06499545,0.137023894 7.71990296,0.410314644 C8.37481047,0.683983913 8.94410189,1.06098888 9.42888911,1.54170807 C9.91367634,2.02242725 10.2965396,2.5898273 10.5778497,3.24390821 C10.858789,3.89874616 11,4.60581973 11,5.36702153 Z M7.96081404,5.32689851 C7.96081404,4.91317719 7.88557566,4.52595221 7.73546952,4.16560208 C7.58499276,3.80525195 7.37929176,3.49145966 7.11762526,3.22460374 C6.85595876,2.95774781 6.5490751,2.74388455 6.19586239,2.583771 C5.84302032,2.42365744 5.46386334,2.3434114 5.05876209,2.3434114 L3.03881532,2.3434114 L3.03881532,8.39138869 L5.05876209,8.39138869 C5.46386334,8.39138869 5.84302032,8.3081145 6.19586239,8.14080908 C6.5490751,7.97388219 6.85595876,7.75017743 7.11762526,7.47007334 C7.37929176,7.18996925 7.58499276,6.86633546 7.73546952,6.49879347 C7.88557566,6.13125148 7.96081404,5.74099834 7.96081404,5.32689851 Z" id="Shape"></path>
                    <polygon id="Path" points="25 16 14 16 14 0 17.2126411 0 17.2126411 12.9960729 25 12.9960729 25 16"></polygon>
                    <path d="M41,0 L41,9.06371912 C41,10.1777355 40.842199,11.2147734 40.5273414,12.1756223 C40.2121115,13.1364713 39.7558285,13.975339 39.1588643,14.6922255 C38.561528,15.4095068 37.832815,15.9732259 36.9730973,16.3837776 C36.1130074,16.7943294 35.1323338,17 34.0295877,17 C32.9532658,17 31.9818965,16.798277 31.1154797,16.3944362 C30.2490629,15.9909902 29.5106734,15.4375348 28.900311,14.7340702 C28.2899487,14.0310004 27.8202674,13.2023964 27.4923838,12.2486532 C27.1637557,11.2953047 27,10.2681358 27,9.16833086 L27,0 L30.0518117,0 L30.0518117,9.1892532 C30.0518117,9.82995077 30.1370391,10.4319617 30.3078661,10.9956808 C30.478321,11.5597947 30.7276763,12.050483 31.0559322,12.4681404 C31.384188,12.8857979 31.7943217,13.2166078 32.2867055,13.4601756 C32.7787171,13.704138 33.3399527,13.8257245 33.9704123,13.8257245 C34.63995,13.8257245 35.2205386,13.710849 35.7129223,13.4810979 C36.2053061,13.2513468 36.6117181,12.9311954 36.933647,12.5202489 C37.2552038,12.1096972 37.49786,11.6257199 37.6623601,11.0687117 C37.8261159,10.5120983 37.9083659,9.89942876 37.9083659,9.2310979 L37.9083659,0 L41,0 Z" id="Path"></path>
                    <polygon id="Path" points="55 2.76318902 50.5727494 2.76318902 50.5727494 16 47.4272506 16 47.4272506 2.76318902 43 2.76318902 43 0 54.9996213 0 54.9996213 2.76318902"></polygon>
                    <path d="M73,8.5 C73,9.67462992 72.7632846,10.7807333 72.2894526,11.8183102 C71.8156205,12.8562742 71.1692671,13.7571852 70.3495899,14.5218174 C69.5299126,15.2868367 68.5758292,15.8907994 67.4873395,16.3344796 C66.3988499,16.7781599 65.2397468,17 64.0104315,17 C62.7811163,17 61.6184023,16.7777727 60.523092,16.3344796 C59.4277817,15.8907994 58.4700874,15.2864496 57.6500089,14.5218174 C56.8303317,13.7571852 56.1839782,12.8593714 55.7101462,11.8283762 C55.2363142,10.797381 55,9.68818037 55,8.5 C55,7.31220679 55.2363142,6.19952175 55.7101462,5.16155773 C56.1839782,4.12398087 56.8303317,3.22268276 57.6500089,2.4576634 C58.4700874,1.69341836 59.4273805,1.09255295 60.523092,0.655454338 C61.6184023,0.218742883 62.7811163,0 64.0104315,0 C65.2397468,0 66.3988499,0.218355728 67.4873395,0.655454338 C68.5758292,1.09255295 69.5295114,1.69690276 70.3495899,2.4681166 C71.1692671,3.2397176 71.8156205,4.14101571 72.2894526,5.17162378 C72.7636858,6.20300615 73,7.31220679 73,8.5 Z M69.7100571,8.5 C69.7100571,7.7493054 69.5612072,7.04235937 69.2635075,6.37993623 C68.9658078,5.71790025 68.5581758,5.13755409 68.0406116,4.63889775 C67.5234486,4.14062856 66.9172165,3.74456844 66.2227175,3.45110453 C65.5278174,3.15764063 64.7907899,3.01052152 64.0108327,3.01052152 C63.2168331,3.01052152 62.4725838,3.15725347 61.7780849,3.45110453 C61.0831847,3.74495559 60.4769526,4.14062856 59.9597896,4.63889775 C59.4422254,5.13755409 59.0345934,5.71751309 58.7368937,6.37993623 C58.439194,7.04235937 58.2903442,7.7493054 58.2903442,8.5 C58.2903442,9.23753131 58.439194,9.94099294 58.7368937,10.6099977 C59.0345934,11.2790025 59.4422254,11.8628331 59.9597896,12.3611023 C60.4769526,12.8597586 61.0831847,13.2554316 61.7780849,13.5488955 C62.4721826,13.8427465 63.2168331,13.9894785 64.0108327,13.9894785 C64.7903887,13.9894785 65.5278174,13.8427465 66.2227175,13.5488955 C66.9168153,13.2554316 67.5234486,12.8593714 68.0406116,12.3611023 C68.5581758,11.8628331 68.9658078,11.2790025 69.2635075,10.6099977 C69.5612072,9.94099294 69.7100571,9.23753131 69.7100571,8.5 Z" id="Shape"></path>
                    <polygon id="Path" points="89 16 86.0285081 16 78.9714919 4.78000142 78.9714919 16 76 16 76 0 79.401586 0 86.0281386 10.4400917 86.0281386 0 88.9996305 0 88.9996305 16"></polygon>
                    <polygon id="Path" points="96 16 92 16 92 0 96 0"></polygon>
                    <path d="M113,0 L113,9.06371912 C113,10.1777355 112.842567,11.2147734 112.527329,12.1756223 C112.212463,13.1364713 111.756168,13.975339 111.158815,14.6922255 C110.561463,15.4095068 109.832731,15.9732259 108.97299,16.3837776 C108.11325,16.7943294 107.132178,17 106.029402,17 C104.95268,17 103.981657,16.798277 103.115217,16.3944362 C102.248777,15.9909902 101.510368,15.4375348 100.899989,14.7340702 C100.289611,14.0310004 99.8199171,13.2023964 99.4920247,12.2486532 C99.1637601,11.2953047 99,10.2681358 99,9.16833086 L99,0 L102.051893,0 L102.051893,9.1892532 C102.051893,9.82995077 102.137123,10.4319617 102.307954,10.9956808 C102.478413,11.5597947 102.727775,12.050483 103.05604,12.4681404 C103.384305,12.8857979 103.794449,13.2166078 104.286846,13.4601756 C104.779243,13.704138 105.340121,13.8257245 105.970598,13.8257245 C106.640153,13.8257245 107.220757,13.710849 107.713154,13.4810979 C108.205551,13.2513468 108.612346,12.9311954 108.933911,12.5202489 C109.255476,12.1096972 109.498511,11.6257199 109.662644,11.0687117 C109.826404,10.5120983 109.909028,9.89942876 109.909028,9.2310979 L109.909028,0 L113,0 Z" id="Path"></path>
                    <polygon id="Path" points="133 15.999622 129.9522 15.999622 129.9522 5.31984973 124.899948 13.8198143 120.0478 5.24008222 120.0478 16 117 16 117 0 120.508646 0 124.959828 7.94007986 129.611114 0 132.999621 0 132.999621 15.999622"></polygon>
                </g>
            </g>
        </g>
    </g>
</svg>
