<svg width="20px" height="22px" viewBox="0 0 20 22" version="1.1" xmlns="http://www.w3.org/2000/svg">
    <g id="Symbols" stroke="none" stroke-width="0.5" fill="none" fill-rule="evenodd">
        <g id="footer" transform="translate(-160.000000, -221.000000)" fill="currentColor" fill-rule="nonzero" stroke="currentColor" stroke-width="0.5">
            <g id="disclaimer" transform="translate(0.000000, 207.000000)">
                <g id="Group" transform="translate(161.000000, 15.000000)">
                    <path d="M9.32137779,20 C8.34483509,20 7.4426376,18.937261 6.78155424,17.0078965 C6.61519159,16.5222969 6.46660272,15.9897565 6.33954552,15.4250396 C6.29150551,15.2110052 6.24630931,14.9932032 6.20568351,14.7774378 C6.04673506,13.9413595 5.93115466,13.0389936 5.86239549,12.0956944 L5.86117671,12.0810317 C5.84055912,11.8029498 5.82441036,11.5257844 5.8134414,11.2574777 C5.79495666,10.8514029 5.78571429,10.4284252 5.78571429,9.99994909 C5.78571429,9.57198206 5.79505822,9.14930989 5.81323827,8.74404965 C5.82441036,8.47340098 5.84076225,8.19450455 5.8617861,7.91458988 L5.86249705,7.90430564 C5.93125622,6.96100643 6.04673506,6.05864055 6.20578507,5.22286767 C6.24600462,5.01005514 6.29099769,4.79245686 6.33964709,4.57577501 C6.46639959,4.01085446 6.61509002,3.478314 6.78165581,2.99210353 C7.44273916,1.06273897 8.34493665,0 9.32147935,0 C10.2981236,0 11.200118,1.06273897 11.8613029,2.99210353 C12.0279702,3.47841582 12.1766607,4.01126175 12.3033116,4.57577501 C12.3522657,4.79062403 12.3970557,5.0086296 12.4369705,5.22368227 C12.596833,6.06617553 12.7127181,6.97067973 12.7812742,7.91265522 C12.7944776,8.0822943 12.8042278,8.2372707 12.8119467,8.38725772 L12.8123529,8.39438541 C12.819564,8.50995586 12.8253532,8.6259336 12.8293142,8.74211499 C12.8479005,9.14849529 12.8571429,9.57126929 12.8571429,9.99994909 L12.8571429,10.0541196 C12.8559241,10.4648783 12.8468848,10.8696294 12.8293142,11.2566631 C12.8182437,11.5286355 12.8018918,11.8077356 12.7812742,12.0877521 C12.7127181,13.030033 12.5969346,13.9345372 12.4369705,14.7762159 C12.3917743,15.0162155 12.3481016,15.2280098 12.3035147,15.4234104 C12.1767622,15.9883309 12.0279702,16.5213805 11.8613029,17.0077946 C11.2000164,18.9373629 10.2981236,20 9.32137779,20 Z M6.15675659,11.89899 C6.1729094,12.1453035 6.19131133,12.3683723 6.21165569,12.5779835 C6.27667584,13.2876643 6.37195695,13.978892 6.49392085,14.6315822 C6.53338277,14.8507768 6.57867197,15.0744572 6.62825494,15.2947733 C6.75604613,15.871612 6.90755535,16.4150107 7.07797768,16.9096769 C7.69393118,18.6977951 8.490837,19.6825397 9.32147969,19.6825397 C10.1519179,19.6825397 10.948926,18.6977951 11.5648795,16.909473 C11.735404,16.4150107 11.886811,15.871612 12.0146022,15.2941616 C12.0629584,15.0792489 12.1085543,14.8556704 12.1498564,14.6302568 C12.2713091,13.9757315 12.3661813,13.2853194 12.4312015,12.5779835 C12.4463319,12.4287273 12.4589066,12.2765145 12.4704589,12.1225685 C12.4760817,12.0473287 12.4813978,11.9728025 12.4865095,11.89899 L12.4870206,11.89899 L12.4973462,11.7440245 C12.5320031,11.1635156 12.5496894,10.5765838 12.5496894,10.000051 C12.5496894,9.42351817 12.5320031,8.83658636 12.4973462,8.25607747 L12.4877363,8.10101003 L12.4865095,8.10101003 C12.4813978,8.02780922 12.4762862,7.95491427 12.4711745,7.88242712 C12.4590088,7.72450505 12.4464342,7.57208833 12.4312015,7.42089502 C12.3661813,6.71417081 12.2714114,6.0234529 12.1498564,5.3697432 C12.1085543,5.14473739 12.0628561,4.92146473 12.0146022,4.70583841 C11.886811,4.12859194 11.735404,3.58519321 11.5648795,3.09052704 C10.948517,1.30240876 10.1517134,0.317460317 9.32147969,0.317460317 C8.49124593,0.317460317 7.69454458,1.30240876 7.07797768,3.09052704 C6.90755535,3.58519321 6.75604613,4.12859194 6.62825494,4.70604231 C6.57867197,4.92686814 6.53328054,5.15014079 6.49371639,5.36943735 C6.37205918,6.02151584 6.27667584,6.7131513 6.21165569,7.4240555 C6.19642298,7.57320979 6.18395056,7.72450505 6.172296,7.87732957 C6.16319727,8.00283123 6.15409854,8.12945435 6.14571544,8.25607747 C6.13835466,8.39330349 6.13078943,8.52991781 6.12414428,8.66714383 C6.10359546,9.09737698 6.0931677,9.5459613 6.0931677,10.000051 C6.0931677,10.5757682 6.11105847,11.162598 6.14571544,11.7440245 L6.15501863,11.89899 L6.15675659,11.89899 Z" id="Shape"></path>
                    <path d="M15.5718785,16.1290323 C14.6394445,16.1290323 13.5233822,15.9347677 12.2551766,15.5519612 C12.0375776,15.4864032 11.8248464,15.4178333 11.6219542,15.3484603 C10.7992,15.0698638 9.94247514,14.722296 9.07497905,14.3151938 C8.80435259,14.1880936 8.55640779,14.0675191 8.31674853,13.9454386 C7.94752414,13.7596073 7.57115346,13.5595198 7.19778629,13.3503968 C6.8258691,13.1419765 6.45871608,12.9263278 6.10740917,12.7091732 C5.8660928,12.5604881 5.6326477,12.4118029 5.41277017,12.2666316 L5.40013472,12.2576964 C5.15198279,12.0950563 4.90662722,11.9280993 4.67131787,11.760841 C4.15264304,11.3942985 3.65872126,11.0155077 3.20353438,10.634709 C3.13279658,10.5759779 3.06288733,10.5176483 2.99422091,10.4577125 C2.87801621,10.3583213 2.78677169,10.2784068 2.70578054,10.2046164 C2.44333604,9.9703946 2.19590909,9.73516885 1.9695067,9.50466168 C1.82875608,9.36290378 1.68583051,9.21190954 1.53306585,9.04204101 C0.170819435,7.52517129 -0.305288434,6.2291708 0.192051132,5.39328111 C0.430985405,4.9932066 1.01273391,4.51612903 2.43059702,4.51612903 C3.36033823,4.51612903 4.47640053,4.71069476 5.7471953,5.09430447 C5.9661407,5.16046485 6.17897553,5.22893432 6.38031416,5.29780536 C7.20959319,5.57881128 8.06693949,5.92668034 8.92904997,6.331875 C9.17471625,6.44622503 9.43011803,6.57041378 9.68810905,6.7015298 C10.0637547,6.89097537 10.4389861,7.09066125 10.8037571,7.29516609 C11.1729815,7.50167883 11.5401345,7.71762871 11.8951699,7.93628926 C12.1243686,8.07784637 12.3555352,8.22552758 12.6020301,8.38766568 C13.0272854,8.66776804 13.450573,8.96433519 13.8587394,9.26933554 C14.1850861,9.51289408 14.5015938,9.76277751 14.7998732,10.0122594 C14.8284583,10.0358522 14.8540399,10.0569352 14.8790001,10.0789217 C15.0195436,10.1969864 15.1594657,10.3187656 15.2979378,10.4429544 C15.4070998,10.5402372 15.505387,10.6302917 15.5990136,10.7187398 C15.9160391,11.0154073 16.2086222,11.3130788 16.4692025,11.6037227 L16.5022411,11.6413708 C16.5415974,11.6851431 16.5801252,11.7285138 16.6173065,11.7720853 C17.8626233,13.2161685 18.2858072,14.4521327 17.8091815,15.2527837 C17.5709722,15.6525571 16.9890166,16.1290323 15.5718785,16.1290323 Z M5.89427287,12.1993515 C6.36306303,12.499788 6.85646077,12.7957915 7.36138359,13.0787982 C7.87409362,13.3663387 8.40092446,13.6404794 8.92713232,13.8938657 C9.18037245,14.0165792 9.43953086,14.1362702 9.697028,14.2504199 C10.3645478,14.5473301 11.0229306,14.8070636 11.6533833,15.0227693 C11.8645725,15.0967198 12.0829259,15.1680508 12.3009678,15.2347473 C13.5553319,15.6200153 14.6920572,15.8234295 15.5888325,15.8234295 C16.2849054,15.8234295 17.1885335,15.6990033 17.5407231,15.1072986 C17.9080719,14.4901041 17.5905613,13.4962054 16.646855,12.3086653 C16.5213252,12.15079 16.3825051,11.9870713 16.2348596,11.8220428 C16.1060072,11.6790786 15.9818271,11.5468946 15.8547398,11.4180353 C15.6284954,11.1853028 15.3811735,10.9480366 15.1213921,10.7135914 C15.0942926,10.6891091 15.0663625,10.6640224 15.0372902,10.6390364 C14.8593265,10.4805566 14.6918495,10.3364841 14.5254108,10.1991619 C14.3802572,10.0788664 14.2302236,9.95786567 14.0794632,9.83998818 C13.790921,9.61330069 13.485247,9.38500121 13.171059,9.16224297 C13.0661912,9.08768797 12.959143,9.01272998 12.8516794,8.93928323 C12.6159865,8.77697499 12.3801897,8.61990575 12.1518687,8.47341526 L12.1099216,8.44621277 L12.1089871,8.44621277 C11.9264548,8.32893977 11.7394579,8.21257353 11.5527725,8.09943129 C11.2610116,7.92180905 10.9547146,7.74257481 10.6410457,7.56686682 C10.1291663,7.28023309 9.60306231,7.00639461 9.07716594,6.75310912 C8.82361432,6.63009338 8.56445591,6.51040239 8.3070626,6.39625265 C7.64504576,6.10186117 6.98676678,5.84132168 6.35112264,5.62239195 C6.13806452,5.54884445 5.91950344,5.47751346 5.70260363,5.41041396 C4.44813571,5.02514599 3.31120278,4.82173175 2.41442746,4.82173175 C1.71814689,4.82173175 0.814207339,4.94615799 0.461394727,5.53856795 C0.0483610097,6.23414591 0.488909542,7.37513958 1.70288396,8.75108225 L1.72250773,8.77324724 C1.7378745,8.79087849 1.75334509,8.80840899 1.76933483,8.82573799 C2.05798082,9.14783572 2.38898924,9.48121745 2.7511465,9.81439768 C2.82299651,9.87998592 2.8937044,9.94466742 2.96628121,10.0084422 C3.13832668,10.1617837 3.31099512,10.3093824 3.47847209,10.4468054 C3.79162184,10.7076471 4.12179962,10.9657686 4.46017994,11.2139158 C4.68092143,11.3779368 4.91339567,11.5440736 5.15074988,11.7068856 C5.26610445,11.7863773 5.38374326,11.8656675 5.50242037,11.9451593 C5.6179826,12.0216285 5.73375248,12.0968888 5.85097598,12.1726528 L5.89292309,12.199553 L5.89427287,12.199553 L5.89427287,12.1993515 Z" id="Shape"></path>
                    <path d="M2.42931018,16.1290323 C1.01122631,16.1290323 0.4301972,15.6525571 0.192814185,15.2526833 C-0.202306321,14.5905776 0.0123948086,13.6379284 0.813407127,12.4979419 C0.977669544,12.2651256 1.16482099,12.0266873 1.36875081,11.789554 C1.42198592,11.7276102 1.4763603,11.6653652 1.53259895,11.6031203 C1.67179736,11.4479094 1.81710643,11.2929998 1.96604045,11.1426079 C2.19306643,10.9123015 2.44091004,10.676373 2.70366777,10.4415489 C2.79708814,10.3579197 2.89351204,10.2734874 2.99138593,10.1898583 C3.06057085,10.1299224 3.12996292,10.0706893 3.20101211,10.0122594 C3.54434749,9.72472776 3.91626826,9.43368234 4.30714239,9.14655232 C4.65720984,8.88954084 5.02478066,8.63423607 5.39897997,8.38826805 L5.40985485,8.38043723 C5.62818094,8.23626985 5.85468907,8.09200208 6.10574336,7.93689163 C6.46554641,7.71531962 6.83280652,7.49947014 7.19799522,7.29476451 C7.5709517,7.08644465 7.94670457,6.88665838 8.31489681,6.70072664 C8.55507622,6.57854579 8.8030234,6.45797126 9.07365246,6.33097145 C9.94467827,5.92186137 10.8019292,5.57399231 11.6201342,5.29690181 C11.8235462,5.22813116 12.031101,5.16166959 12.2546056,5.09320013 C13.523134,4.71039357 14.639207,4.51612903 15.57165,4.51612903 C16.9891124,4.51612903 17.5704523,4.99260423 17.8090781,5.39227716 C18.2859155,6.19322935 17.8626239,7.42999672 16.6169845,8.8738792 C16.5686172,8.93040165 16.5192142,8.98622133 16.4689826,9.04214141 C16.2074678,9.33308644 15.9144675,9.63105912 15.598164,9.92762628 C15.5007044,10.019287 15.4000341,10.1110481 15.2967745,10.2036124 C15.1575761,10.328002 15.0172384,10.449982 14.8800079,10.5657376 C14.8674759,10.5761787 14.813205,10.6224608 14.8000516,10.6334039 C14.3912598,10.97545 13.952122,11.3146851 13.4946522,11.6424752 C13.2015484,11.8541081 12.9011946,12.0613236 12.6012552,12.258098 C12.3495795,12.4237499 12.118825,12.5709291 11.8941811,12.7085708 C11.5422494,12.9262274 11.1756107,13.1417757 10.8036899,13.3497944 C10.4284549,13.5597206 10.0525985,13.7596073 9.68595978,13.9440331 C9.4495089,14.064708 9.20176886,14.1856841 8.92803269,14.3138887 C8.06373895,14.7195853 7.20638442,15.0671532 6.37979025,15.3471551 C6.17368545,15.4183353 5.96685566,15.4849976 5.74604388,15.55166 C4.47751545,15.9347677 3.361546,16.1290323 2.42931018,16.1290323 Z M15.5882753,4.82173175 C14.6904144,4.82173175 13.5531863,5.02564413 12.298611,5.41120377 C12.0944479,5.47346555 11.8763693,5.54459309 11.6506059,5.62236995 C11.0162048,5.84058844 10.3583343,6.10051628 9.6955829,6.39550416 C9.45310023,6.5031022 9.19358665,6.62319289 8.92524608,6.75194785 C8.40331122,7.0040174 7.87691093,7.27794911 7.36037611,7.56689215 C7.04229284,7.74501325 6.73573659,7.92424256 6.44880741,8.09893825 C6.25845592,8.2135886 6.06197745,8.33609722 5.8480527,8.47331494 C5.60878928,8.62765969 5.3733682,8.78412014 5.14770874,8.93906937 C4.91561076,9.09835073 4.68288971,9.26397917 4.45650331,9.43142106 C4.11827373,9.68036745 3.78793653,9.93817961 3.47473407,10.1983089 C3.28884799,10.3520492 3.1208236,10.4959162 2.96183389,10.6384736 C2.88945255,10.703254 2.81790199,10.7672285 2.74749374,10.8323112 C2.3874563,11.1628629 2.05659986,11.495631 1.76468603,11.8213467 C1.60091936,12.0040015 1.4504451,12.1826263 1.31814406,12.3522846 C0.401798407,13.5196427 0.096488318,14.4980998 0.459225781,15.1072175 C0.810955465,15.6992082 1.7144241,15.8234295 2.41082187,15.8234295 C3.30660582,15.8234295 4.44393783,15.6198194 5.6990323,15.234965 C5.94016496,15.1603113 6.15263586,15.0908965 6.34869894,15.0224891 C6.98123082,14.8052781 7.63941291,14.5453502 8.3044489,14.2496571 C8.55523933,14.1386337 8.81433752,14.018543 9.07416264,13.8929112 C9.60004369,13.6397334 10.1270671,13.365701 10.639448,13.0780676 C10.9457966,12.9066966 11.2527682,12.7274673 11.5513282,12.5454171 C11.7431336,12.429054 11.9357697,12.3088626 12.1240443,12.1880666 L12.1491752,12.1721486 C12.2835532,12.0869164 12.4150235,11.9998708 12.5459745,11.912926 L12.581594,11.8889481 C12.6720447,11.8279961 12.7619762,11.7676485 12.8510769,11.7056889 C13.0458938,11.5718966 13.216099,11.4516044 13.3718695,11.3382638 C13.5870404,11.1828108 13.8042882,11.0199026 14.0164476,10.8541734 C14.0359708,10.8398673 14.0579864,10.8222365 14.0800019,10.8044043 C14.2337993,10.6841121 14.3840659,10.5627117 14.5243631,10.4459456 C14.7023568,10.2987539 14.8751582,10.1510585 15.0368479,10.0070907 C15.0648866,9.98281063 15.0928214,9.95782531 15.1206524,9.93273926 C15.3824506,9.69668851 15.6295026,9.46033551 15.8541236,9.22992661 C15.9967054,9.08354089 16.1213218,8.9506553 16.2348265,8.82381454 C16.3784469,8.66322346 16.5169788,8.49900549 16.6463721,8.33670171 C17.590341,7.14919416 17.9080089,6.15552427 17.5409099,5.53814527 C17.1877263,4.94585233 16.2841539,4.82173175 15.5882753,4.82173175 Z" id="Shape"></path>
                </g>
            </g>
        </g>
    </g>
</svg>