<svg viewBox="0 0 48 48" height="48" width="48" xmlns="http://www.w3.org/2000/svg"><g transform="matrix(2,0,0,2,0,0)"><path d="M1.5,3.775v7.637A12.311,12.311,0,0,0,9.719,22.88l1.121.414a3.365,3.365,0,0,0,2.32,0l1.121-.414A12.311,12.311,0,0,0,22.5,11.412V3.775a1.533,1.533,0,0,0-.934-1.406A24.237,24.237,0,0,0,12,.5,24.237,24.237,0,0,0,2.434,2.369,1.533,1.533,0,0,0,1.5,3.775Z" fill="none" stroke="#fff" stroke-linecap="round" stroke-linejoin="round"></path><path d="M18.5,5.5h-2L12.146,9.854a4,4,0,1,0,2,2L18.5,7.5Z" fill="none" stroke="#fff" stroke-linecap="round" stroke-linejoin="round"></path><path d="M9.250 13.500 A1.250 1.250 0 1 0 11.750 13.500 A1.250 1.250 0 1 0 9.250 13.500 Z" fill="none" stroke="#fff" stroke-linecap="round" stroke-linejoin="round"></path></g></svg>